<svg width="97" height="102" viewBox="0 0 97 102" fill="none" xmlns="http://www.w3.org/2000/svg">
<path d="M0 0.905273H96.242V101.279H0V0.905273Z" fill="#F7DF1E"/>
<path d="M25.3057 84.7851L32.6708 80.1365C34.0917 82.7639 35.3842 84.9869 38.4846 84.9869C41.4565 84.9869 43.3301 83.7745 43.3301 79.0585V46.9866H52.3744V79.1918C52.3744 88.9616 46.8834 93.4085 38.8723 93.4085C31.6372 93.4085 27.4374 89.5004 25.3055 84.7843" fill="black"/>
<path d="M57.2867 83.7743L64.6509 79.3274C66.5895 82.6292 69.1091 85.0546 73.5665 85.0546C77.3139 85.0546 79.7036 83.1005 79.7036 80.4054C79.7036 77.1713 77.2489 76.0257 73.1141 74.1398L70.8537 73.1284C64.3283 70.2318 59.9997 66.5934 59.9997 58.9123C59.9997 51.8377 65.1679 46.4473 73.2437 46.4473C78.9934 46.4473 83.128 48.5362 86.0995 53.9938L79.0576 58.7099C77.507 55.813 75.8278 54.6677 73.2438 54.6677C70.595 54.6677 68.9152 56.4195 68.9152 58.7099C68.9152 61.5399 70.595 62.6855 74.4708 64.4375L76.7318 65.4481C84.4197 68.8845 88.7483 72.3877 88.7483 80.2706C88.7483 88.7606 82.3526 93.4092 73.7605 93.4092C65.3621 93.4092 59.9352 89.2321 57.2869 83.7743" fill="black"/>
</svg>
