<svg width="86" height="102" viewBox="0 0 86 102" fill="none" xmlns="http://www.w3.org/2000/svg">
<path d="M42.7386 101.097C41.4113 101.097 40.1725 100.729 39.0222 100.084L27.2536 92.813C25.4839 91.8005 26.3688 91.4323 26.8997 91.2482C29.2888 90.4199 29.7312 90.2358 32.2088 88.7631C32.4743 88.579 32.8282 88.6711 33.0937 88.8551L42.1192 94.4697C42.4732 94.6538 42.9156 94.6538 43.1811 94.4697L78.4869 73.208C78.8408 73.0239 79.0178 72.6557 79.0178 72.1955V29.7641C79.0178 29.3039 78.8408 28.9358 78.4869 28.7517L43.1811 7.58199C42.8271 7.3979 42.3847 7.3979 42.1192 7.58199L6.8134 28.7517C6.45946 28.9358 6.28249 29.396 6.28249 29.7641V72.1955C6.28249 72.5637 6.45946 73.0239 6.8134 73.208L16.4584 79.0066C21.679 81.7679 24.953 78.5464 24.953 75.325V33.4458C24.953 32.8936 25.3954 32.3413 26.0148 32.3413H30.5276C31.0585 32.3413 31.5894 32.8015 31.5894 33.4458V75.325C31.5894 82.5963 27.7845 86.8302 21.1481 86.8302C19.1129 86.8302 17.5202 86.8302 13.0074 84.5292L3.7164 79.0066C1.41577 77.626 0 75.0488 0 72.2876V29.8562C0 27.0949 1.41577 24.5177 3.7164 23.1371L39.0222 1.87538C41.2344 0.586788 44.2429 0.586788 46.455 1.87538L81.7608 23.1371C84.0615 24.5177 85.4772 27.0949 85.4772 29.8562V72.2876C85.4772 75.0488 84.0615 77.626 81.7608 79.0066L46.455 100.268C45.3047 100.821 43.9774 101.097 42.7386 101.097ZM53.6224 71.9194C38.1374 71.9194 34.9519 64.556 34.9519 58.2972C34.9519 57.7449 35.3943 57.1927 36.0137 57.1927H40.615C41.1459 57.1927 41.5883 57.5608 41.5883 58.1131C42.2962 62.9913 44.3314 65.3844 53.7109 65.3844C61.1437 65.3844 64.3291 63.6356 64.3291 59.4937C64.3291 57.1006 63.4443 55.3518 51.8527 54.1553C42.2077 53.1428 36.1907 50.9338 36.1907 42.9261C36.1907 35.4707 42.2077 31.0527 52.2951 31.0527C63.6213 31.0527 69.1959 35.1026 69.9037 43.9386C69.9037 44.2147 69.8153 44.4909 69.6383 44.767C69.4613 44.9511 69.1959 45.1352 68.9304 45.1352H64.3291C63.8867 45.1352 63.4443 44.767 63.3558 44.3068C62.294 39.2445 59.5509 37.5877 52.2951 37.5877C44.1544 37.5877 43.1811 40.5331 43.1811 42.7421C43.1811 45.4113 44.3314 46.2397 55.3036 47.7123C66.1873 49.185 71.3195 51.302 71.3195 59.2176C71.231 67.3173 64.8601 71.9194 53.6224 71.9194Z" fill="#539E43"/>
</svg>
