<svg width="106" height="101" viewBox="0 0 106 101" fill="none" xmlns="http://www.w3.org/2000/svg">
<path d="M0 50.5162C0 58.9016 7.80178 66.7296 20.1019 71.1419C17.6457 84.1197 19.6617 94.5797 26.3955 98.6555C33.3171 102.845 43.6286 99.9449 53.4155 90.9663C62.9556 99.5825 72.5975 102.973 79.325 98.8859C86.2399 94.6846 88.3432 83.5152 85.819 70.1323C98.6303 65.6868 105.797 59.0119 105.797 50.5162C105.797 42.3253 97.9803 35.2391 85.846 30.855C88.5634 16.919 86.2609 6.71281 79.2484 2.46866C72.4877 -1.62297 62.7338 1.9433 53.0534 10.7851C42.9826 1.40023 33.325 -1.46509 26.3193 2.79144C19.5651 6.89471 17.6378 17.5448 20.1019 30.7629C8.21711 35.1118 0 42.3581 0 50.5162Z" fill="white"/>
<path d="M83.2748 35.2083C82.3001 34.8562 81.2901 34.5231 80.2502 34.208C80.4212 33.4759 80.578 32.7533 80.7175 32.0429C83.007 20.3789 81.5101 10.9822 76.3983 7.88845C71.4968 4.92193 63.4807 8.015 55.3849 15.4095C54.6064 16.1205 53.8257 16.8733 53.0453 17.6623C52.5254 17.1403 52.0063 16.6358 51.4885 16.1533C43.0038 8.24669 34.4992 4.91473 29.3925 8.01746C24.4956 10.9926 23.0455 19.8263 25.1064 30.8804C25.3054 31.9482 25.5381 33.0385 25.8011 34.1471C24.5975 34.5057 23.4355 34.888 22.3237 35.2947C12.3763 38.9345 6.02344 44.639 6.02344 50.5561C6.02344 56.6673 12.8432 62.7969 23.2042 66.5136C24.0218 66.8069 24.8703 67.0843 25.7446 67.3476C25.4608 68.5466 25.2139 69.7215 25.0067 70.8675C23.0416 81.7298 24.5762 90.3548 29.46 93.3112C34.5046 96.3642 42.9707 93.226 51.2145 85.6631C51.8661 85.0652 52.52 84.4313 53.1751 83.7667C54.0242 84.6249 54.8719 85.437 55.7152 86.1988C63.7003 93.4105 71.5869 96.3226 76.4662 93.358C81.5057 90.2962 83.1435 81.0308 81.0172 69.758C80.8548 68.8971 80.6658 68.0175 80.4536 67.1224C81.0481 66.9379 81.6318 66.7474 82.2009 66.5494C92.9722 62.804 99.9803 56.7489 99.9803 50.5561C99.9803 44.6176 93.4225 38.8747 83.2748 35.2083Z" fill="#53C1DE"/>
<path d="M80.9386 62.5513C80.4249 62.7298 79.8977 62.9023 79.3605 63.0696C78.1715 59.1187 76.5666 54.9176 74.6027 50.5771C76.4768 46.3399 78.0196 42.1925 79.1754 38.2673C80.1365 38.5592 81.0694 38.867 81.9683 39.1919C90.6629 42.3333 95.9665 46.9778 95.9665 50.5565C95.9665 54.3686 90.2388 59.3171 80.9386 62.5513ZM77.0797 70.5766C78.0199 75.5613 78.1542 80.068 77.5314 83.5911C76.9718 86.7568 75.8465 88.8675 74.455 89.7128C71.494 91.5116 65.1619 89.1735 58.3329 83.0059C57.55 82.2989 56.7615 81.544 55.9704 80.745C58.6179 77.7062 61.2638 74.1734 63.8462 70.2499C68.3883 69.8269 72.6796 69.1353 76.5711 68.1912C76.7628 69.0026 76.933 69.7985 77.0797 70.5766ZM38.0555 89.402C35.1625 90.4743 32.8584 90.505 31.4656 89.6621C28.502 87.8681 27.2699 80.943 28.9505 71.6536C29.143 70.5897 29.3721 69.4969 29.6362 68.3799C33.4851 69.2731 37.7449 69.9159 42.2979 70.3033C44.8977 74.1425 47.62 77.6714 50.3635 80.7613C49.7641 81.3686 49.167 81.9468 48.5733 82.4916C44.9279 85.8359 41.2749 88.2086 38.0555 89.402ZM24.5024 62.5279C19.9209 60.8845 16.1374 58.7486 13.544 56.4178C11.2137 54.3233 10.0371 52.2438 10.0371 50.5565C10.0371 46.9659 15.1378 42.3859 23.6449 39.273C24.6771 38.8953 25.7577 38.5393 26.879 38.205C28.0547 42.2188 29.597 46.4154 31.4583 50.659C29.573 54.9657 28.0088 59.2292 26.8215 63.2901C26.0221 63.0489 25.2476 62.7951 24.5024 62.5279ZM29.0455 30.0719C27.2797 20.601 28.4524 13.4565 31.4034 11.6637C34.5467 9.75382 41.4975 12.4769 48.8233 19.3039C49.2916 19.7402 49.7617 20.1969 50.2332 20.6695C47.5033 23.7459 44.8059 27.2482 42.2292 31.0648C37.8103 31.4947 33.5804 32.1852 29.6914 33.1099C29.4469 32.0776 29.2303 31.0634 29.0455 30.0719ZM69.5742 40.575C68.6445 38.8897 67.6901 37.2441 66.7171 35.6435C69.7149 36.0413 72.5871 36.5692 75.2844 37.2153C74.4746 39.9391 73.4653 42.787 72.2772 45.7065C71.4249 44.0083 70.5235 42.2961 69.5742 40.575ZM53.0467 23.68C54.8981 25.7851 56.7521 28.1353 58.5757 30.6853C56.7381 30.5943 54.8777 30.5469 53.0019 30.5469C51.1438 30.5469 49.2971 30.5932 47.4709 30.6827C49.2963 28.1564 51.1664 25.8093 53.0467 23.68ZM36.4133 40.6042C35.4846 42.2943 34.5999 43.9972 33.761 45.7033C32.5922 42.794 31.5922 39.9332 30.7754 37.1708C33.4562 36.5412 36.3148 36.0264 39.2936 35.6362C38.3068 37.2515 37.3445 38.9091 36.4133 40.6038V40.6042ZM39.3794 65.7774C36.3018 65.4171 33.4001 64.9287 30.7201 64.3165C31.5499 61.5048 32.5719 58.5829 33.7656 55.6109C34.6066 57.3158 35.4948 59.0194 36.4292 60.7132H36.4294C37.3812 62.4388 38.3672 64.1291 39.3794 65.7774ZM53.1577 77.73C51.2554 75.5758 49.3578 73.1929 47.5046 70.6298C49.3037 70.7038 51.1378 70.7417 53.0019 70.7417C54.917 70.7417 56.8102 70.6964 58.6736 70.6094C56.8439 73.2187 54.9966 75.6053 53.1577 77.73ZM72.3155 55.4594C73.5713 58.4635 74.6299 61.3702 75.4705 64.134C72.7463 64.7862 69.805 65.3116 66.706 65.7019C67.6814 64.0797 68.6442 62.406 69.5903 60.6842C70.5474 58.9423 71.4562 57.1978 72.3155 55.4594ZM66.1135 58.5797C64.6448 61.2524 63.1369 63.8038 61.6061 66.2122C58.8181 66.4214 55.9376 66.5292 53.0019 66.5292C50.078 66.5292 47.2339 66.4339 44.4951 66.2473C42.9026 63.8073 41.362 61.2484 39.9027 58.6027H39.903C38.4475 55.9642 37.1079 53.3035 35.894 50.6576C37.1075 48.0057 38.4436 45.3419 39.8908 42.7082L39.8905 42.7087C41.3414 40.068 42.8685 37.5215 44.4463 35.0968C47.2406 34.8751 50.1059 34.7594 53.0017 34.7594H53.0019C55.9107 34.7594 58.7798 34.876 61.5732 35.0996C63.1269 37.5065 64.6436 40.0448 66.1003 42.6859C67.5735 45.3567 68.9268 48.0027 70.1507 50.5978C68.9305 53.2375 67.5802 55.9102 66.1135 58.5797ZM74.3935 11.5384C77.5398 13.4426 78.7633 21.1225 76.7865 31.1931C76.6604 31.8357 76.5184 32.4903 76.3642 33.1536C72.4662 32.2096 68.2333 31.5071 63.8015 31.0708C61.2198 27.2123 58.5444 23.7044 55.859 20.6675C56.581 19.9386 57.302 19.2435 58.02 18.5876C64.9565 12.252 71.4396 9.75066 74.3935 11.5384Z" fill="white"/>
<path d="M53.0033 41.751C57.6369 41.751 61.3933 45.6932 61.3933 50.5565C61.3933 55.4195 57.6369 59.362 53.0033 59.362C48.3697 59.362 44.6133 55.4195 44.6133 50.5565C44.6133 45.6932 48.3697 41.751 53.0033 41.751Z" fill="#53C1DE"/>
</svg>
