<svg width="100" height="101" viewBox="0 0 100 101" fill="none" xmlns="http://www.w3.org/2000/svg">
<path d="M0 50.6784V100.865H50H100V50.6784V0.491417H50H0V50.6784Z" fill="#007ACC"/>
<path d="M22.1132 51.0116L22.0815 55.1222L28.5894 55.1222H35.0974V73.6834V92.2446H39.7005H44.3037V73.6834L44.3037 55.1222H50.8116H57.3196V51.0913C57.3196 48.8607 57.272 46.9966 57.2085 46.9488C57.1608 46.8851 49.2402 46.8532 39.637 46.8692L22.1609 46.917L22.1132 51.0116Z" fill="white"/>
<path d="M80.6906 46.8002C83.2302 47.4375 85.1668 48.5687 86.9445 50.4168C87.8652 51.4046 89.2302 53.205 89.3414 53.6352C89.3731 53.7626 85.0239 56.6942 82.389 58.3352C82.2937 58.3989 81.9128 57.9847 81.4842 57.3474C80.1985 55.4674 78.8493 54.6548 76.7858 54.5114C73.754 54.3043 71.8017 55.8976 71.8175 58.5583C71.8175 59.339 71.9287 59.801 72.2461 60.4383C72.9128 61.8244 74.1509 62.6529 78.0398 64.3417C85.1985 67.4326 88.262 69.4719 90.1668 72.3716C92.2937 75.6059 92.7699 80.768 91.3255 84.6077C89.7382 88.782 85.8017 91.618 80.262 92.558C78.5477 92.8607 74.4842 92.8129 72.6429 92.4783C68.6271 91.7614 64.8175 89.7698 62.4683 87.1569C61.5477 86.1372 59.7541 83.4765 59.8652 83.2853C59.9128 83.2216 60.3255 82.9667 60.7858 82.6958C61.2302 82.4409 62.9128 81.469 64.5001 80.545L67.3731 78.8721L67.9763 79.7643C68.8175 81.0548 70.6588 82.8233 71.7699 83.4128C74.9604 85.1016 79.3414 84.8626 81.5001 82.9189C82.4207 82.0745 82.8017 81.1982 82.8017 79.9077C82.8017 78.7446 82.6588 78.2348 82.0556 77.3585C81.2779 76.2432 79.6906 75.3032 75.1826 73.3435C70.0239 71.113 67.8017 69.7269 65.7699 67.5282C64.5953 66.2536 63.4842 64.2143 63.0239 62.5095C62.6429 61.0915 62.5477 57.5386 62.8493 56.1047C63.9128 51.1019 67.6747 47.6127 73.1033 46.5771C74.8652 46.2425 78.9604 46.37 80.6906 46.8002Z" fill="white"/>
</svg>
